<mxfile host="app.diagrams.net" modified="2024-07-14T13:17:48.590Z" agent="Mozilla/5.0 (Windows NT 10.0; Win64; x64) AppleWebKit/537.36 (KHTML, like Gecko) Chrome/126.0.0.0 Safari/537.36" version="24.6.5" etag="ML3Q_m_0KJMJ3ECeUS-J" type="github">
  <diagram name="Halaman-1" id="yD_oKUrpSVjXng9ysBk6">
    <mxGraphModel>
      <root>
        <mxCell id="0" />
        <mxCell id="1" parent="0" />
      </root>
    </mxGraphModel>
  </diagram>
</mxfile>
